<?xml version="1.0" encoding="UTF-8"?>
<svg width="100" height="100" viewBox="0 0 100 100" xmlns="http://www.w3.org/2000/svg">
  <!-- Background circle -->
  <circle cx="50" cy="50" r="48" fill="#fff" stroke="#333" stroke-width="2"/>
  
  <!-- Artist Palette -->
  <path d="M30 40 C20 30 30 20 45 20 C65 20 80 35 75 60 C70 80 55 80 50 70 C45 80 30 80 25 60 C22 45 25 40 30 40Z" 
        fill="#f5e9d9" stroke="#333" stroke-width="2"/>
  
  <!-- Thumb hole -->
  <circle cx="30" cy="42" r="6" fill="#222"/>
  
  <!-- Color spots -->
  <circle cx="42" cy="30" r="8" fill="#e63946"/> <!-- Red -->
  <circle cx="60" cy="32" r="8" fill="#457b9d"/> <!-- Blue -->
  <circle cx="70" cy="50" r="8" fill="#f1c453"/> <!-- Yellow -->
  <circle cx="60" cy="65" r="8" fill="#2a9d8f"/> <!-- Green -->
  <circle cx="37" cy="60" r="8" fill="#9c89b8"/> <!-- Purple -->
  
  <!-- Brush handle -->
  <rect x="15" y="50" width="25" height="5" rx="2" fill="#8B4513" transform="rotate(-25, 15, 50)"/>
</svg> 